# xmcd
#
# Track frame offsets:
#	150
#	14602
#	26592
#	41442
#	55362
#	70960
#	83247
#	97120
#	106995
#	120695
#	135685
#	147515
#
# Disc length: 2116 seconds
#
# Revision: 1
# Processed by: cddbd v1.4PL0 Copyright (c) Steve Scherf et al.
# Submitted via: audiograbber 1.81.02
#
DISCID=ad08420c
DTITLE=Larry Stephenson Band - Two Hearts On The Borderline
DYEAR=2000
DGENRE=Bluegrass
TTITLE0=Two Hearts On The Borderline
TTITLE1=I've Got A Funny Feeling
TTITLE2=You're Not Easy To Forget
TTITLE3=Lonesome Day
TTITLE4=The Land Of Living
TTITLE5=Bully Of The Town
TTITLE6=I Wonder If You Knew
TTITLE7=That's The Way I Feel
TTITLE8=Emotions
TTITLE9=Mountain Way Of Live
TTITLE10=Ease My Worried Mind
TTITLE11=That's The Way I Want To Go
EXTD=
EXTT0=
EXTT1=
EXTT2=
EXTT3=
EXTT4=
EXTT5=
EXTT6=
EXTT7=
EXTT8=
EXTT9=
EXTT10=
EXTT11=
PLAYORDER=
